# xmcd
#
# Track frame offsets:
#	150
#	26720
#	47122
#	67747
#	92467
#	123170
#	144325
#	157392
#	176460
#	203577
#	235612
#	255937
#
# Disc length: 4081 seconds
#
# Revision: 1
# Processed by: cddbd v1.5.1PL0 Copyright (c) Steve Scherf et al.
# Submitted via: audiograbber 1.80
#
DISCID=910fef0c
DTITLE=fubuki daiko - Zanshin: Leaving the Heart Behind
DYEAR=1900
DGENRE=
TTITLE0=Furinkazan
TTITLE1=Push
TTITLE2=Zanshin
TTITLE3=(circle-triangle)
TTITLE4=Happa
TTITLE5=Insomnia
TTITLE6=Yorokobi
TTITLE7=Monkey
TTITLE8=In the Weeds
TTITLE9=Images and Atmosphere
TTITLE10=Hanabi
TTITLE11=Maruki Bune
EXTD=
EXTT0=
EXTT1=
EXTT2=
EXTT3=
EXTT4=
EXTT5=
EXTT6=
EXTT7=
EXTT8=
EXTT9=
EXTT10=
EXTT11=
PLAYORDER=
